<svg width="290" height="45" viewBox="0 0 290 45" fill="none" xmlns="http://www.w3.org/2000/svg">
<path d="M66.39 12.06C68.59 12.06 70.52 12.49 72.18 13.35C73.86 14.21 75.15 15.44 76.05 17.04C76.97 18.62 77.43 20.46 77.43 22.56C77.43 24.66 76.97 26.5 76.05 28.08C75.15 29.64 73.86 30.85 72.18 31.71C70.52 32.57 68.59 33 66.39 33H59.07V12.06H66.39ZM66.24 29.43C68.44 29.43 70.14 28.83 71.34 27.63C72.54 26.43 73.14 24.74 73.14 22.56C73.14 20.38 72.54 18.68 71.34 17.46C70.14 16.22 68.44 15.6 66.24 15.6H63.27V29.43H66.24ZM82.7039 14.4C81.9639 14.4 81.3439 14.17 80.8439 13.71C80.3639 13.23 80.1239 12.64 80.1239 11.94C80.1239 11.24 80.3639 10.66 80.8439 10.2C81.3439 9.72 81.9639 9.48 82.7039 9.48C83.4439 9.48 84.0539 9.72 84.5339 10.2C85.0339 10.66 85.2839 11.24 85.2839 11.94C85.2839 12.64 85.0339 13.23 84.5339 13.71C84.0539 14.17 83.4439 14.4 82.7039 14.4ZM84.7739 16.38V33H80.5739V16.38H84.7739ZM98.1335 16.14C100.114 16.14 101.714 16.77 102.934 18.03C104.154 19.27 104.764 21.01 104.764 23.25V33H100.564V23.82C100.564 22.5 100.234 21.49 99.5735 20.79C98.9135 20.07 98.0135 19.71 96.8735 19.71C95.7135 19.71 94.7935 20.07 94.1135 20.79C93.4535 21.49 93.1235 22.5 93.1235 23.82V33H88.9235V16.38H93.1235V18.45C93.6835 17.73 94.3935 17.17 95.2535 16.77C96.1335 16.35 97.0935 16.14 98.1335 16.14ZM116.138 33.27C114.538 33.27 113.098 32.92 111.818 32.22C110.538 31.5 109.528 30.49 108.788 29.19C108.068 27.89 107.708 26.39 107.708 24.69C107.708 22.99 108.078 21.49 108.818 20.19C109.578 18.89 110.608 17.89 111.908 17.19C113.208 16.47 114.658 16.11 116.258 16.11C117.858 16.11 119.308 16.47 120.608 17.19C121.908 17.89 122.928 18.89 123.668 20.19C124.428 21.49 124.808 22.99 124.808 24.69C124.808 26.39 124.418 27.89 123.637 29.19C122.878 30.49 121.838 31.5 120.518 32.22C119.218 32.92 117.758 33.27 116.138 33.27ZM116.138 29.61C116.898 29.61 117.608 29.43 118.268 29.07C118.948 28.69 119.488 28.13 119.888 27.39C120.288 26.65 120.488 25.75 120.488 24.69C120.488 23.11 120.068 21.9 119.228 21.06C118.408 20.2 117.398 19.77 116.198 19.77C114.998 19.77 113.988 20.2 113.168 21.06C112.368 21.9 111.968 23.11 111.968 24.69C111.968 26.27 112.358 27.49 113.138 28.35C113.938 29.19 114.938 29.61 116.138 29.61Z" fill="#F9AA1A"/>
<path d="M168.689 15.45V33H164.414V22.475L160.489 33H157.039L153.089 22.45V33H148.814V15.45H153.864L158.789 27.6L163.664 15.45H168.689ZM176.038 18.875V22.425H181.763V25.725H176.038V29.575H182.513V33H171.763V15.45H182.513V18.875H176.038ZM194.238 33L190.588 26.375H189.563V33H185.288V15.45H192.463C193.847 15.45 195.022 15.6917 195.988 16.175C196.972 16.6583 197.705 17.325 198.188 18.175C198.672 19.0083 198.913 19.9417 198.913 20.975C198.913 22.1417 198.58 23.1833 197.913 24.1C197.263 25.0167 196.297 25.6667 195.013 26.05L199.063 33H194.238ZM189.563 23.35H192.213C192.997 23.35 193.58 23.1583 193.963 22.775C194.363 22.3917 194.563 21.85 194.563 21.15C194.563 20.4833 194.363 19.9583 193.963 19.575C193.58 19.1917 192.997 19 192.213 19H189.563V23.35ZM200.872 24.2C200.872 22.4667 201.247 20.925 201.997 19.575C202.747 18.2083 203.789 17.15 205.122 16.4C206.472 15.6333 207.997 15.25 209.697 15.25C211.78 15.25 213.564 15.8 215.047 16.9C216.53 18 217.522 19.5 218.022 21.4H213.322C212.972 20.6667 212.472 20.1083 211.822 19.725C211.189 19.3417 210.464 19.15 209.647 19.15C208.33 19.15 207.264 19.6083 206.447 20.525C205.63 21.4417 205.222 22.6667 205.222 24.2C205.222 25.7333 205.63 26.9583 206.447 27.875C207.264 28.7917 208.33 29.25 209.647 29.25C210.464 29.25 211.189 29.0583 211.822 28.675C212.472 28.2917 212.972 27.7333 213.322 27H218.022C217.522 28.9 216.53 30.4 215.047 31.5C213.564 32.5833 211.78 33.125 209.697 33.125C207.997 33.125 206.472 32.75 205.122 32C203.789 31.2333 202.747 30.175 201.997 28.825C201.247 27.475 200.872 25.9333 200.872 24.2ZM235.84 15.45V33H231.565V25.775H224.915V33H220.64V15.45H224.915V22.325H231.565V15.45H235.84ZM249.851 29.9H243.301L242.251 33H237.776L244.126 15.45H249.076L255.426 33H250.901L249.851 29.9ZM248.751 26.6L246.576 20.175L244.426 26.6H248.751ZM273.059 33H268.784L261.634 22.175V33H257.359V15.45H261.634L268.784 26.325V15.45H273.059V33ZM288.782 15.45V18.875H284.132V33H279.857V18.875H275.207V15.45H288.782Z" fill="#021337"/>
<rect x="3" y="4.5" width="36" height="36" rx="12" stroke="#F9AA1A" stroke-width="6"/>
<rect x="19.5" y="6" width="18" height="18" rx="9" stroke="#F9AA1A" stroke-width="6"/>
<line x1="136" y1="15" x2="136" y2="33" stroke="#021337" stroke-width="2"/>
</svg>
